<?xml version="1.0" encoding="UTF-8" standalone="no"?>
<!-- Created with Inkscape (http://www.inkscape.org/) -->
<svg
   xmlns:i="http://ns.adobe.com/AdobeIllustrator/10.0/"
   xmlns:dc="http://purl.org/dc/elements/1.1/"
   xmlns:cc="http://web.resource.org/cc/"
   xmlns:rdf="http://www.w3.org/1999/02/22-rdf-syntax-ns#"
   xmlns:svg="http://www.w3.org/2000/svg"
   xmlns="http://www.w3.org/2000/svg"
   xmlns:xlink="http://www.w3.org/1999/xlink"
   xmlns:sodipodi="http://inkscape.sourceforge.net/DTD/sodipodi-0.dtd"
   xmlns:inkscape="http://www.inkscape.org/namespaces/inkscape"
   width="744.09448819"
   height="1052.3622047"
   id="svg2736"
   sodipodi:version="0.32"
   inkscape:version="0.42"
   sodipodi:docbase="/home/reformist/Desktop/www/projects/inkforword/images"
   sodipodi:docname="corners.svg">
  <defs
     id="defs2738" />
  <sodipodi:namedview
     id="base"
     pagecolor="#ffffff"
     bordercolor="#666666"
     borderopacity="1.0"
     inkscape:pageopacity="0.0"
     inkscape:pageshadow="2"
     inkscape:zoom="1.4142136"
     inkscape:cx="174.84220"
     inkscape:cy="801.26023"
     inkscape:document-units="px"
     inkscape:current-layer="layer1"
     inkscape:window-width="973"
     inkscape:window-height="552"
     inkscape:window-x="75"
     inkscape:window-y="76"
     showguides="true"
     inkscape:guide-bbox="true" />
  <metadata
     id="metadata2741">
    <rdf:RDF>
      <cc:Work
         rdf:about="">
        <dc:format>image/svg+xml</dc:format>
        <dc:type
           rdf:resource="http://purl.org/dc/dcmitype/StillImage" />
      </cc:Work>
    </rdf:RDF>
  </metadata>
  <g
     inkscape:label="Layer 1"
     inkscape:groupmode="layer"
     id="layer1">
    <rect
       style="opacity:1.0000000;color:#000000;fill:#f3f0e8;fill-opacity:1.0000000;fill-rule:nonzero;stroke:none;stroke-width:1.0000000;stroke-linecap:butt;stroke-linejoin:miter;marker:none;marker-start:none;marker-mid:none;marker-end:none;stroke-miterlimit:4.0000000;stroke-dasharray:none;stroke-dashoffset:0.0000000;stroke-opacity:1.0000000;visibility:visible;display:inline;overflow:visible"
       id="rect2822"
       width="365.29404"
       height="156.97771"
       x="11.100229"
       y="171.30714"
       rx="7.1609864"
       ry="7.1609931"
       inkscape:export-filename="/home/reformist/d/www/projects/inkforword/images/corners.png"
       inkscape:export-xdpi="105.28000"
       inkscape:export-ydpi="105.28000" />
    <image
       id="image2799"
       height="143.00000"
       width="304.00000"
       sodipodi:absref="/home/reformist/d/www/projects/installpad/images/corner.png"
       xlink:href="/home/reformist/d/www/projects/installpad/images/corner.png"
       x="46.528355"
       y="347.56781"
       inkscape:export-filename="/home/reformist/d/www/projects/inkforword/images/corners.png"
       inkscape:export-xdpi="105.28000"
       inkscape:export-ydpi="105.28000" />
    <rect
       style="opacity:1.0000000;color:#000000;fill:#ffffff;fill-opacity:1.0000000;fill-rule:nonzero;stroke:#1e2c90;stroke-width:1.0000006;stroke-linecap:butt;stroke-linejoin:miter;marker:none;marker-start:none;marker-mid:none;marker-end:none;stroke-miterlimit:4.0000000;stroke-dasharray:none;stroke-dashoffset:0.0000000;stroke-opacity:1.0000000;visibility:visible;display:inline;overflow:visible"
       id="rect2802"
       width="302.68781"
       height="141.31935"
       x="42.947803"
       y="178.66415"
       rx="7.1609869"
       ry="7.1609931"
       inkscape:export-filename="/home/reformist/d/www/projects/inkforword/images/corners.png"
       inkscape:export-xdpi="105.28000"
       inkscape:export-ydpi="105.28000" />
    <path
       i:knockout="Off"
       d="M -6.1331393,255.78194 C -7.4310093,260.66560 -5.1745193,264.77644 -3.3032693,268.98817 C -2.9823193,269.82057 -2.7045393,270.64453 -2.4938593,271.46707 C -2.4042393,272.17325 -2.3868793,272.89163 -2.4525693,273.63487 C -2.5572093,274.54282 -2.7622593,275.39070 -3.0752293,276.14896 C -4.0183593,278.41952 -5.9431093,279.87927 -9.3496493,279.50812 C -18.432839,278.51853 -25.558432,269.57470 -34.343666,274.09002 C -36.416686,275.04441 -37.918663,276.36293 -39.022272,277.93857 C -39.574545,278.72686 -40.026405,279.57897 -40.400375,280.48269 C -42.023881,287.71245 -44.249866,297.38920 -51.734884,298.78466 C -53.231700,299.06385 -54.939197,299.01177 -56.894442,298.54255 C -59.240548,298.07333 -61.586655,296.19644 -62.992442,293.84940 C -63.345766,292.44267 -63.624483,290.99090 -63.865663,289.51567 C -65.555329,279.18670 -65.417378,267.68562 -75.811568,261.89589 C -76.781917,261.31312 -77.827811,260.78619 -78.953943,260.31837 C -82.999569,258.41146 -89.601512,259.10027 -91.998764,254.09181 C -95.162254,244.73506 -83.044145,242.91683 -76.825086,240.05411 C -71.927354,237.32841 -69.894218,230.75086 -70.192643,225.24643 C -70.171997,215.83385 -81.183682,208.68057 -76.917991,197.96121 C -75.605110,196.47471 -73.778901,195.86895 -71.994922,196.92798 C -70.802161,197.49527 -69.717322,198.30327 -68.701457,199.27034 C -63.549408,205.73386 -58.990923,216.32841 -49.238627,216.00887 C -47.983460,215.69730 -46.700140,215.19195 -45.402743,214.63921 C -41.511022,212.98239 -37.507626,210.90421 -33.433377,212.55446 C -32.347130,212.99459 -31.186276,214.81094 -30.568312,216.40724 C -30.403146,217.81959 -30.235634,219.27089 -30.029176,220.71891 C -29.823658,222.16693 -29.577786,223.61260 -29.255428,225.01369 C -28.118034,232.20357 -22.228837,237.95482 -14.880359,237.53486 C -13.347419,237.49263 -11.782099,237.31527 -10.224279,237.11209 C -3.9934893,236.29753 2.1359507,235.04283 5.7986907,240.56509 C 6.1862607,241.17039 6.3073207,241.78038 6.2247407,242.39318 C 6.3345407,243.04258 6.0394007,243.63755 5.4547507,244.23675 C 1.9548307,247.53397 -3.2460193,248.48649 -5.1153993,253.21718 C -5.4992193,254.00359 -5.8417493,254.85898 -6.1331393,255.78194 z "
       id="path2666"
       style="fill:#1e2c90"
       inkscape:export-filename="/home/reformist/d/www/projects/inkforword/images/logo.png"
       inkscape:export-xdpi="105.28000"
       inkscape:export-ydpi="105.28000" />
  </g>
</svg>
